<?xml version="1.0" standalone="no"?><!DOCTYPE svg PUBLIC "-//W3C//DTD SVG 1.1//EN" "http://www.w3.org/Graphics/SVG/1.1/DTD/svg11.dtd"><svg t="1561469692928" class="icon" viewBox="0 0 1024 1024" version="1.1" xmlns="http://www.w3.org/2000/svg" p-id="11872" xmlns:xlink="http://www.w3.org/1999/xlink" width="128" height="128"><defs><style type="text/css"></style></defs><path d="M807.424 684.686 807.424 617.1 528.71 617.1l0 67.586 60.664 0c17.78 0 32.364 14.816 32.364 32.424l0 0.914 0 159.758c0 17.814-14.582 32.396-32.364 32.396l-0.994 0-159.464 0c-17.812 0-32.612-14.584-32.612-32.396l0-0.946 0-159.726c0-17.61 14.8-32.424 32.612-32.424l0.714 0 59.7 0 0-67.586-271.7 0 0 67.586 60.54 0c17.69 0 32.458 14.816 32.458 32.424l0 0.914 0 159.758c0 17.814-14.768 32.396-32.458 32.396l-0.868 0L117.594 910.178c-18.12 0-32.674-14.584-32.674-32.396l0-0.946 0-159.726c0-17.61 14.554-32.424 32.674-32.424l0.868 0 59.796 0 0-87.01 0-0.25c0-10.876 8.78-19.672 19.392-19.672l291.682 0 0-136.58-112.016 0c-18.122 0-32.458-14.832-32.458-32.86l0-0.696L344.858 144.84c0-18.028 14.334-32.396 32.458-32.396l0.868 0 262.514 0c18.152 0 32.706 14.368 32.706 32.396l0 0.93 0 262.544c0 18.03-14.554 32.86-32.706 32.86l-0.838 0-111.148 0 0 136.58 298.198 0 0.436 0c10.61 0 19.174 8.796 19.174 19.672l0 87.26 53.9 0c17.936 0 32.52 14.816 32.52 32.424l0 0.914 0 159.758c0 17.814-14.584 32.396-32.52 32.396l-0.84 0-159.494 0c-18.34 0-32.704-14.584-32.704-32.396l0-0.946 0-159.726c0-17.61 14.366-32.424 32.704-32.424l0.62 0L807.424 684.686 807.424 684.686z" p-id="11873"></path></svg>